<?xml version="1.0" encoding="UTF-8"?>
<svg version="1.1" xmlns="http://www.w3.org/2000/svg" width="32" height="32">
<path d="M0 0 C10.56 0 21.12 0 32 0 C32 10.56 32 21.12 32 32 C21.44 32 10.88 32 0 32 C0 21.44 0 10.88 0 0 Z " fill="#FB68B7" transform="translate(0,0)"/>
<path d="M0 0 C0 10.56 0 21.12 0 32 C-10.56 32 -21.12 32 -32 32 C-31.67 30.68 -31.34 29.36 -31 28 C-30.34 28.66 -29.68 29.32 -29 30 C-24.80829929 29.73844889 -22.93167766 28.32045437 -20.0625 25.375 C-16.43177033 21.99228982 -16.43177033 21.99228982 -12.5 22.0625 C-11.675 22.371875 -10.85 22.68125 -10 23 C-10 21.68 -10 20.36 -10 19 C-11.32 18.34 -12.64 17.68 -14 17 C-13.01 17 -12.02 17 -11 17 C-10.67 15.35 -10.34 13.7 -10 12 C-9.01 11.67 -8.02 11.34 -7 11 C-7 10.34 -7 9.68 -7 9 C-13.10634401 5.47765926 -13.10634401 5.47765926 -20 5 C-19.67 3.68 -19.34 2.36 -19 1 C-16.95857606 0.83038614 -14.91684689 0.66444404 -12.875 0.5 C-11.16957031 0.36078125 -11.16957031 0.36078125 -9.4296875 0.21875 C-6.29198838 0.0186234 -3.14407481 0 0 0 Z " fill="#B464F3" transform="translate(32,0)"/>
<path d="M0 0 C6.6 0 13.2 0 20 0 C20 0.33 20 0.66 20 1 C13.565 1.495 13.565 1.495 7 2 C6.67 2.99 6.34 3.98 6 5 C7.08861328 4.67708984 7.08861328 4.67708984 8.19921875 4.34765625 C11.64412618 3.9200457 12.8900121 4.64911188 15.8125 6.4375 C16.60269531 6.91058594 17.39289062 7.38367188 18.20703125 7.87109375 C18.79871094 8.24363281 19.39039062 8.61617187 20 9 C19.67 9.99 19.34 10.98 19 12 C18.01 12 17.02 12 16 12 C15.34 13.98 14.68 15.96 14 18 C14.66 18.33 15.32 18.66 16 19 C16 20.32 16 21.64 16 23 C10.93001981 22.34580901 6.58009223 20.1453591 2 18 C2.8125 16.0625 2.8125 16.0625 4 14 C4.99 13.67 5.98 13.34 7 13 C6.67 11.35 6.34 9.7 6 8 C5.01 8 4.02 8 3 8 C3 8.66 3 9.32 3 10 C2.34 10 1.68 10 1 10 C0.67 8.35 0.34 6.7 0 5 C0.66 5 1.32 5 2 5 C2 4.01 2 3.02 2 2 C1.34 1.34 0.68 0.68 0 0 Z " fill="#FA6DC0" transform="translate(6,0)"/>
<path d="M0 0 C0.11928251 15.30224215 0.11928251 15.30224215 -2.625 19.46484375 C-4.5625 21.0625 -4.5625 21.0625 -8 23 C-8.66 22.67 -9.32 22.34 -10 22 C-10 21.01 -10 20.02 -10 19 C-11.32 18.34 -12.64 17.68 -14 17 C-13.01 17 -12.02 17 -11 17 C-10.67 15.35 -10.34 13.7 -10 12 C-9.01 11.67 -8.02 11.34 -7 11 C-7 10.34 -7 9.68 -7 9 C-13.10634401 5.47765926 -13.10634401 5.47765926 -20 5 C-19.67 3.68 -19.34 2.36 -19 1 C-16.95857606 0.83038614 -14.91684689 0.66444404 -12.875 0.5 C-11.16957031 0.36078125 -11.16957031 0.36078125 -9.4296875 0.21875 C-6.27402851 0.0174779 -3.16078835 -0.03842904 0 0 Z " fill="#CD60D6" transform="translate(32,0)"/>
<path d="M0 0 C0.33 0.66 0.66 1.32 1 2 C2.3921875 2.2165625 2.3921875 2.2165625 3.8125 2.4375 C7.16509372 3.02913419 8.42293614 3.90368992 11 6 C9.45519587 7.53880489 7.8884306 9.05558825 6.3125 10.5625 C5.44238281 11.40941406 4.57226562 12.25632812 3.67578125 13.12890625 C1 15 1 15 -1.7421875 14.8828125 C-4 14 -4 14 -5.4375 12.3125 C-6.25392681 8.95607865 -5.42415441 7.10724598 -4 4 C-1.875 1.625 -1.875 1.625 0 0 Z " fill="#EF64D1" transform="translate(6,16)"/>
<path d="M0 0 C2.02045442 0.60183749 4.02111039 1.27306096 6 2 C6.33 2.66 6.66 3.32 7 4 C6.0625 6.125 6.0625 6.125 5 8 C5.66 8.33 6.32 8.66 7 9 C7 10.32 7 11.64 7 13 C1.93001981 12.34580901 -2.41990777 10.1453591 -7 8 C-6.1875 6.0625 -6.1875 6.0625 -5 4 C-4.01 3.67 -3.02 3.34 -2 3 C-1.34 2.01 -0.68 1.02 0 0 Z " fill="#FAEDF9" transform="translate(15,10)"/>
<path d="M0 0 C1.2375 0.7115625 1.2375 0.7115625 2.5 1.4375 C-0.5 2.4375 -0.5 2.4375 -3.5 2.4375 C-5.70142332 4.8765706 -5.70142332 4.8765706 -7.5 7.4375 C-5.85 7.7675 -4.2 8.0975 -2.5 8.4375 C-2.5 8.7675 -2.5 9.0975 -2.5 9.4375 C-8.11 9.4375 -13.72 9.4375 -19.5 9.4375 C-19.17 8.1175 -18.84 6.7975 -18.5 5.4375 C-17.84 6.0975 -17.18 6.7575 -16.5 7.4375 C-12.27599922 7.18086941 -10.42983065 5.73460388 -7.5625 2.75 C-3.93881406 -0.63302369 -3.93881406 -0.63302369 0 0 Z " fill="#9F48B8" transform="translate(19.5,22.5625)"/>
<path d="M0 0 C2.97 0.99 5.94 1.98 9 3 C4.5078125 8.46875 4.5078125 8.46875 3 10 C2.34 10 1.68 10 1 10 C1.03255208 7.98177083 1.06510417 5.96354167 1.09765625 3.9453125 C1.12649242 1.91814596 1.12649242 1.91814596 0 0 Z " fill="#D15EC8" transform="translate(8,18)"/>
<path d="M0 0 C2.97 0.99 5.94 1.98 9 3 C9 4.32 9 5.64 9 7 C5.04179141 6.43454163 2.3340947 5.19097652 -1 3 C-0.67 2.01 -0.34 1.02 0 0 Z " fill="#FBF2FB" transform="translate(16,5)"/>
<path d="M0 0 C0.33 0 0.66 0 1 0 C1 3.3 1 6.6 1 10 C-0.98 10 -2.96 10 -5 10 C-5 7 -5 7 -3.625 5.5625 C-3.08875 5.046875 -2.5525 4.53125 -2 4 C-0.82425289 1.90010348 -0.82425289 1.90010348 0 0 Z " fill="#754DBA" transform="translate(31,22)"/>
<path d="M0 0 C0.33 0.66 0.66 1.32 1 2 C2.66128463 2.35919668 4.32900023 2.68911632 6 3 C8.3125 4.0625 8.3125 4.0625 10 5 C9.67 5.66 9.34 6.32 9 7 C8.05125 6.649375 7.1025 6.29875 6.125 5.9375 C3.12939828 4.64973223 3.12939828 4.64973223 1 6 C0.67 4.02 0.34 2.04 0 0 Z " fill="#EC6FC2" transform="translate(12,6)"/>
<path d="M0 0 C1.98 0 3.96 0 6 0 C6 0.66 6 1.32 6 2 C4.03852126 3.38938077 2.03833424 4.7260411 0 6 C0 4.02 0 2.04 0 0 Z " fill="#8C3D61" transform="translate(0,0)"/>
<path d="M0 0 C0.99 0.33 1.98 0.66 3 1 C1.63016497 4.16115776 1.0109362 4.9927092 -2 7 C-1.34 4.69 -0.68 2.38 0 0 Z " fill="#F4DDF5" transform="translate(12,21)"/>
<path d="M0 0 C0 0.66 0 1.32 0 2 C-0.99 2 -1.98 2 -3 2 C-3 2.66 -3 3.32 -3 4 C-3.66 4 -4.32 4 -5 4 C-5.33 2.68 -5.66 1.36 -6 0 C-2.25 -1.125 -2.25 -1.125 0 0 Z " fill="#FCACC2" transform="translate(12,6)"/>
</svg>
